<mxfile host="app.diagrams.net" modified="2023-04-13T13:50:18.269Z" agent="Mozilla/5.0 (X11; Linux x86_64; rv:107.0) Gecko/20100101 Firefox/107.0" etag="l_qhGUOEkF3_zLiZmfva" version="21.1.7" type="device">
  <diagram name="PÃ¡gina-1" id="-7_u-qfVMXH_2IJ6wtah">
    <mxGraphModel dx="1941" dy="505" grid="1" gridSize="10" guides="1" tooltips="1" connect="1" arrows="1" fold="1" page="1" pageScale="1" pageWidth="827" pageHeight="1169" math="0" shadow="0">
      <root>
        <mxCell id="0" />
        <mxCell id="1" parent="0" />
        <mxCell id="cP0h3hF0tNRpp3RLARsW-73" style="edgeStyle=none;rounded=0;orthogonalLoop=1;jettySize=auto;html=1;endArrow=oval;endFill=1;" parent="1" source="cP0h3hF0tNRpp3RLARsW-1" edge="1">
          <mxGeometry relative="1" as="geometry">
            <mxPoint x="260" y="440" as="targetPoint" />
          </mxGeometry>
        </mxCell>
        <mxCell id="cP0h3hF0tNRpp3RLARsW-74" style="edgeStyle=none;rounded=0;orthogonalLoop=1;jettySize=auto;html=1;entryX=0.638;entryY=1.035;entryDx=0;entryDy=0;entryPerimeter=0;endArrow=oval;endFill=0;" parent="1" source="cP0h3hF0tNRpp3RLARsW-1" target="cP0h3hF0tNRpp3RLARsW-69" edge="1">
          <mxGeometry relative="1" as="geometry">
            <mxPoint x="310" y="400" as="targetPoint" />
          </mxGeometry>
        </mxCell>
        <mxCell id="cP0h3hF0tNRpp3RLARsW-75" style="edgeStyle=none;rounded=0;orthogonalLoop=1;jettySize=auto;html=1;endArrow=oval;endFill=0;" parent="1" source="cP0h3hF0tNRpp3RLARsW-1" edge="1">
          <mxGeometry relative="1" as="geometry">
            <mxPoint x="340" y="400" as="targetPoint" />
          </mxGeometry>
        </mxCell>
        <mxCell id="cP0h3hF0tNRpp3RLARsW-76" style="edgeStyle=none;rounded=0;orthogonalLoop=1;jettySize=auto;html=1;endArrow=oval;endFill=0;" parent="1" source="cP0h3hF0tNRpp3RLARsW-1" edge="1">
          <mxGeometry relative="1" as="geometry">
            <mxPoint x="380" y="410" as="targetPoint" />
          </mxGeometry>
        </mxCell>
        <mxCell id="cP0h3hF0tNRpp3RLARsW-77" style="edgeStyle=none;rounded=0;orthogonalLoop=1;jettySize=auto;html=1;endArrow=oval;endFill=0;" parent="1" source="cP0h3hF0tNRpp3RLARsW-1" edge="1">
          <mxGeometry relative="1" as="geometry">
            <mxPoint x="260" y="410" as="targetPoint" />
          </mxGeometry>
        </mxCell>
        <mxCell id="cP0h3hF0tNRpp3RLARsW-1" value="tb_funcionarios" style="rounded=0;whiteSpace=wrap;html=1;" parent="1" vertex="1">
          <mxGeometry x="290" y="430" width="120" height="60" as="geometry" />
        </mxCell>
        <mxCell id="cP0h3hF0tNRpp3RLARsW-23" style="edgeStyle=none;rounded=0;orthogonalLoop=1;jettySize=auto;html=1;endArrow=oval;endFill=1;" parent="1" source="cP0h3hF0tNRpp3RLARsW-3" edge="1">
          <mxGeometry relative="1" as="geometry">
            <mxPoint x="-20" y="450" as="targetPoint" />
          </mxGeometry>
        </mxCell>
        <mxCell id="cP0h3hF0tNRpp3RLARsW-24" style="edgeStyle=none;rounded=0;orthogonalLoop=1;jettySize=auto;html=1;exitX=0.016;exitY=0.39;exitDx=0;exitDy=0;exitPerimeter=0;endArrow=oval;endFill=0;" parent="1" source="cP0h3hF0tNRpp3RLARsW-3" edge="1">
          <mxGeometry relative="1" as="geometry">
            <mxPoint x="-30" y="480" as="targetPoint" />
            <Array as="points" />
          </mxGeometry>
        </mxCell>
        <mxCell id="cP0h3hF0tNRpp3RLARsW-25" style="edgeStyle=none;rounded=0;orthogonalLoop=1;jettySize=auto;html=1;endArrow=oval;endFill=0;" parent="1" source="cP0h3hF0tNRpp3RLARsW-3" edge="1">
          <mxGeometry relative="1" as="geometry">
            <mxPoint x="-20" y="530" as="targetPoint" />
          </mxGeometry>
        </mxCell>
        <mxCell id="cP0h3hF0tNRpp3RLARsW-26" style="edgeStyle=none;rounded=0;orthogonalLoop=1;jettySize=auto;html=1;endArrow=oval;endFill=0;" parent="1" source="cP0h3hF0tNRpp3RLARsW-3" edge="1">
          <mxGeometry relative="1" as="geometry">
            <mxPoint x="-10" y="550" as="targetPoint" />
          </mxGeometry>
        </mxCell>
        <mxCell id="cP0h3hF0tNRpp3RLARsW-27" style="edgeStyle=none;rounded=0;orthogonalLoop=1;jettySize=auto;html=1;entryX=0.095;entryY=-0.073;entryDx=0;entryDy=0;entryPerimeter=0;endArrow=oval;endFill=0;" parent="1" source="cP0h3hF0tNRpp3RLARsW-3" edge="1">
          <mxGeometry relative="1" as="geometry">
            <mxPoint x="26.649999999999864" y="552.81" as="targetPoint" />
          </mxGeometry>
        </mxCell>
        <mxCell id="cP0h3hF0tNRpp3RLARsW-35" style="edgeStyle=none;rounded=0;orthogonalLoop=1;jettySize=auto;html=1;exitX=0;exitY=0.5;exitDx=0;exitDy=0;endArrow=oval;endFill=0;" parent="1" source="cP0h3hF0tNRpp3RLARsW-3" edge="1">
          <mxGeometry relative="1" as="geometry">
            <mxPoint x="-30" y="500" as="targetPoint" />
            <Array as="points">
              <mxPoint x="-10" y="500" />
            </Array>
          </mxGeometry>
        </mxCell>
        <mxCell id="cP0h3hF0tNRpp3RLARsW-3" value="tb_pacientes" style="rounded=0;whiteSpace=wrap;html=1;" parent="1" vertex="1">
          <mxGeometry x="10" y="460" width="120" height="60" as="geometry" />
        </mxCell>
        <mxCell id="cP0h3hF0tNRpp3RLARsW-20" style="edgeStyle=none;rounded=0;orthogonalLoop=1;jettySize=auto;html=1;endArrow=oval;endFill=1;exitX=0.428;exitY=-0.041;exitDx=0;exitDy=0;entryX=0.558;entryY=1.192;entryDx=0;entryDy=0;entryPerimeter=0;exitPerimeter=0;" parent="1" source="cP0h3hF0tNRpp3RLARsW-4" edge="1">
          <mxGeometry relative="1" as="geometry">
            <mxPoint x="515.2199999999998" y="465.76" as="targetPoint" />
          </mxGeometry>
        </mxCell>
        <mxCell id="cP0h3hF0tNRpp3RLARsW-52" style="edgeStyle=none;rounded=0;orthogonalLoop=1;jettySize=auto;html=1;entryX=0.865;entryY=1.173;entryDx=0;entryDy=0;entryPerimeter=0;endArrow=oval;endFill=0;" parent="1" source="cP0h3hF0tNRpp3RLARsW-4" target="cP0h3hF0tNRpp3RLARsW-63" edge="1">
          <mxGeometry relative="1" as="geometry">
            <mxPoint x="570" y="470" as="targetPoint" />
          </mxGeometry>
        </mxCell>
        <mxCell id="cP0h3hF0tNRpp3RLARsW-59" style="edgeStyle=none;rounded=0;orthogonalLoop=1;jettySize=auto;html=1;entryX=-0.004;entryY=-0.112;entryDx=0;entryDy=0;entryPerimeter=0;endArrow=oval;endFill=0;" parent="1" source="cP0h3hF0tNRpp3RLARsW-4" target="cP0h3hF0tNRpp3RLARsW-62" edge="1">
          <mxGeometry relative="1" as="geometry">
            <mxPoint x="580" y="490" as="targetPoint" />
          </mxGeometry>
        </mxCell>
        <mxCell id="cP0h3hF0tNRpp3RLARsW-60" style="edgeStyle=none;rounded=0;orthogonalLoop=1;jettySize=auto;html=1;endArrow=oval;endFill=0;" parent="1" source="cP0h3hF0tNRpp3RLARsW-4" edge="1">
          <mxGeometry relative="1" as="geometry">
            <mxPoint x="600" y="510" as="targetPoint" />
          </mxGeometry>
        </mxCell>
        <mxCell id="cP0h3hF0tNRpp3RLARsW-61" style="edgeStyle=none;rounded=0;orthogonalLoop=1;jettySize=auto;html=1;entryX=0.002;entryY=0.457;entryDx=0;entryDy=0;entryPerimeter=0;endArrow=oval;endFill=0;" parent="1" target="cP0h3hF0tNRpp3RLARsW-56" edge="1">
          <mxGeometry relative="1" as="geometry">
            <mxPoint x="560" y="536" as="sourcePoint" />
            <mxPoint x="605.2299999999996" y="531.3599999999999" as="targetPoint" />
          </mxGeometry>
        </mxCell>
        <mxCell id="cP0h3hF0tNRpp3RLARsW-4" value="tb_agenda" style="rounded=0;whiteSpace=wrap;html=1;direction=east;" parent="1" vertex="1">
          <mxGeometry x="450" y="500" width="120" height="60" as="geometry" />
        </mxCell>
        <mxCell id="cP0h3hF0tNRpp3RLARsW-46" style="edgeStyle=none;rounded=0;orthogonalLoop=1;jettySize=auto;html=1;endArrow=oval;endFill=1;" parent="1" source="cP0h3hF0tNRpp3RLARsW-5" edge="1">
          <mxGeometry relative="1" as="geometry">
            <mxPoint x="350" y="570" as="targetPoint" />
          </mxGeometry>
        </mxCell>
        <mxCell id="cP0h3hF0tNRpp3RLARsW-48" style="edgeStyle=none;rounded=0;orthogonalLoop=1;jettySize=auto;html=1;endArrow=oval;endFill=1;" parent="1" source="cP0h3hF0tNRpp3RLARsW-5" edge="1">
          <mxGeometry relative="1" as="geometry">
            <mxPoint x="360" y="590" as="targetPoint" />
          </mxGeometry>
        </mxCell>
        <mxCell id="cP0h3hF0tNRpp3RLARsW-65" style="edgeStyle=none;rounded=0;orthogonalLoop=1;jettySize=auto;html=1;endArrow=oval;endFill=1;" parent="1" source="cP0h3hF0tNRpp3RLARsW-5" edge="1">
          <mxGeometry relative="1" as="geometry">
            <mxPoint x="320" y="560" as="targetPoint" />
          </mxGeometry>
        </mxCell>
        <mxCell id="cP0h3hF0tNRpp3RLARsW-81" style="edgeStyle=none;rounded=0;orthogonalLoop=1;jettySize=auto;html=1;exitX=0.25;exitY=0;exitDx=0;exitDy=0;" parent="1" source="cP0h3hF0tNRpp3RLARsW-5" edge="1">
          <mxGeometry relative="1" as="geometry">
            <mxPoint x="224.88235294117658" y="584.5882352941178" as="targetPoint" />
          </mxGeometry>
        </mxCell>
        <mxCell id="cP0h3hF0tNRpp3RLARsW-5" value="tb_agenda_funcionario" style="rounded=0;whiteSpace=wrap;html=1;" parent="1" vertex="1">
          <mxGeometry x="190" y="585" width="140" height="70" as="geometry" />
        </mxCell>
        <mxCell id="cP0h3hF0tNRpp3RLARsW-39" style="edgeStyle=none;rounded=0;orthogonalLoop=1;jettySize=auto;html=1;endArrow=oval;endFill=1;" parent="1" source="cP0h3hF0tNRpp3RLARsW-8" edge="1">
          <mxGeometry relative="1" as="geometry">
            <mxPoint x="270" y="710" as="targetPoint" />
          </mxGeometry>
        </mxCell>
        <mxCell id="cP0h3hF0tNRpp3RLARsW-42" style="edgeStyle=none;rounded=0;orthogonalLoop=1;jettySize=auto;html=1;endArrow=oval;endFill=0;" parent="1" source="cP0h3hF0tNRpp3RLARsW-8" edge="1">
          <mxGeometry relative="1" as="geometry">
            <mxPoint x="260" y="730" as="targetPoint" />
          </mxGeometry>
        </mxCell>
        <mxCell id="cP0h3hF0tNRpp3RLARsW-43" style="edgeStyle=none;rounded=0;orthogonalLoop=1;jettySize=auto;html=1;endArrow=oval;endFill=0;" parent="1" source="cP0h3hF0tNRpp3RLARsW-8" edge="1">
          <mxGeometry relative="1" as="geometry">
            <mxPoint x="260" y="750" as="targetPoint" />
            <Array as="points">
              <mxPoint x="290" y="760" />
              <mxPoint x="270" y="750" />
            </Array>
          </mxGeometry>
        </mxCell>
        <mxCell id="cP0h3hF0tNRpp3RLARsW-8" value="tb_serviÃ§o" style="rounded=0;whiteSpace=wrap;html=1;" parent="1" vertex="1">
          <mxGeometry x="290" y="720" width="120" height="60" as="geometry" />
        </mxCell>
        <mxCell id="cP0h3hF0tNRpp3RLARsW-10" value="" style="edgeStyle=entityRelationEdgeStyle;fontSize=12;html=1;endArrow=ERoneToMany;startArrow=ERoneToMany;rounded=0;" parent="1" source="cP0h3hF0tNRpp3RLARsW-5" target="cP0h3hF0tNRpp3RLARsW-8" edge="1">
          <mxGeometry width="100" height="100" relative="1" as="geometry">
            <mxPoint x="460" y="590" as="sourcePoint" />
            <mxPoint x="620" y="620" as="targetPoint" />
          </mxGeometry>
        </mxCell>
        <mxCell id="cP0h3hF0tNRpp3RLARsW-14" value="" style="edgeStyle=orthogonalEdgeStyle;fontSize=12;html=1;endArrow=ERoneToMany;startArrow=ERoneToMany;rounded=0;entryX=0.25;entryY=1;entryDx=0;entryDy=0;" parent="1" source="cP0h3hF0tNRpp3RLARsW-5" target="cP0h3hF0tNRpp3RLARsW-1" edge="1">
          <mxGeometry width="100" height="100" relative="1" as="geometry">
            <mxPoint x="170" y="650" as="sourcePoint" />
            <mxPoint x="190" y="410" as="targetPoint" />
            <Array as="points">
              <mxPoint x="270" y="510" />
              <mxPoint x="320" y="510" />
            </Array>
          </mxGeometry>
        </mxCell>
        <mxCell id="cP0h3hF0tNRpp3RLARsW-22" style="edgeStyle=none;rounded=0;orthogonalLoop=1;jettySize=auto;html=1;endArrow=oval;endFill=0;exitX=1;exitY=0.75;exitDx=0;exitDy=0;" parent="1" source="cP0h3hF0tNRpp3RLARsW-4" edge="1">
          <mxGeometry relative="1" as="geometry">
            <mxPoint x="600" y="560" as="targetPoint" />
            <mxPoint x="600" y="570" as="sourcePoint" />
          </mxGeometry>
        </mxCell>
        <mxCell id="cP0h3hF0tNRpp3RLARsW-28" value="cod_pac" style="text;html=1;align=center;verticalAlign=middle;resizable=0;points=[];autosize=1;strokeColor=none;fillColor=none;" parent="1" vertex="1">
          <mxGeometry x="-90" y="430" width="70" height="30" as="geometry" />
        </mxCell>
        <mxCell id="cP0h3hF0tNRpp3RLARsW-29" value="nome_pac" style="text;html=1;align=center;verticalAlign=middle;resizable=0;points=[];autosize=1;strokeColor=none;fillColor=none;" parent="1" vertex="1">
          <mxGeometry x="-105" y="460" width="80" height="30" as="geometry" />
        </mxCell>
        <mxCell id="cP0h3hF0tNRpp3RLARsW-31" value="cpf_pac" style="text;html=1;align=center;verticalAlign=middle;resizable=0;points=[];autosize=1;strokeColor=none;fillColor=none;" parent="1" vertex="1">
          <mxGeometry x="-90" y="515" width="70" height="30" as="geometry" />
        </mxCell>
        <mxCell id="cP0h3hF0tNRpp3RLARsW-33" value="fone_pac" style="text;html=1;align=center;verticalAlign=middle;resizable=0;points=[];autosize=1;strokeColor=none;fillColor=none;" parent="1" vertex="1">
          <mxGeometry x="-90" y="545" width="70" height="30" as="geometry" />
        </mxCell>
        <mxCell id="cP0h3hF0tNRpp3RLARsW-36" value="data_nasc_pac" style="text;html=1;align=center;verticalAlign=middle;resizable=0;points=[];autosize=1;strokeColor=none;fillColor=none;" parent="1" vertex="1">
          <mxGeometry x="-125" y="485" width="100" height="30" as="geometry" />
        </mxCell>
        <mxCell id="cP0h3hF0tNRpp3RLARsW-40" value="cod_serv" style="text;html=1;align=center;verticalAlign=middle;resizable=0;points=[];autosize=1;strokeColor=none;fillColor=none;" parent="1" vertex="1">
          <mxGeometry x="200" y="690" width="70" height="30" as="geometry" />
        </mxCell>
        <mxCell id="cP0h3hF0tNRpp3RLARsW-41" value="tipo_serv" style="text;html=1;align=center;verticalAlign=middle;resizable=0;points=[];autosize=1;strokeColor=none;fillColor=none;" parent="1" vertex="1">
          <mxGeometry x="190" y="710" width="70" height="30" as="geometry" />
        </mxCell>
        <mxCell id="cP0h3hF0tNRpp3RLARsW-44" value="duracao_serv" style="text;html=1;align=center;verticalAlign=middle;resizable=0;points=[];autosize=1;strokeColor=none;fillColor=none;" parent="1" vertex="1">
          <mxGeometry x="170" y="735" width="100" height="30" as="geometry" />
        </mxCell>
        <mxCell id="cP0h3hF0tNRpp3RLARsW-45" value="sexo_pac" style="text;html=1;align=center;verticalAlign=middle;resizable=0;points=[];autosize=1;strokeColor=none;fillColor=none;" parent="1" vertex="1">
          <mxGeometry y="555" width="70" height="30" as="geometry" />
        </mxCell>
        <mxCell id="cP0h3hF0tNRpp3RLARsW-47" value="cod_agenda" style="text;html=1;align=center;verticalAlign=middle;resizable=0;points=[];autosize=1;strokeColor=none;fillColor=none;" parent="1" vertex="1">
          <mxGeometry x="350" y="555" width="90" height="30" as="geometry" />
        </mxCell>
        <mxCell id="cP0h3hF0tNRpp3RLARsW-50" value="cod_func" style="text;html=1;align=center;verticalAlign=middle;resizable=0;points=[];autosize=1;strokeColor=none;fillColor=none;" parent="1" vertex="1">
          <mxGeometry x="360" y="575" width="70" height="30" as="geometry" />
        </mxCell>
        <mxCell id="cP0h3hF0tNRpp3RLARsW-53" value="dia_semana" style="text;html=1;align=center;verticalAlign=middle;resizable=0;points=[];autosize=1;strokeColor=none;fillColor=none;" parent="1" vertex="1">
          <mxGeometry x="570" y="460" width="90" height="30" as="geometry" />
        </mxCell>
        <mxCell id="cP0h3hF0tNRpp3RLARsW-54" value="&amp;nbsp;hora_ini_manha" style="text;html=1;align=center;verticalAlign=middle;resizable=0;points=[];autosize=1;strokeColor=none;fillColor=none;" parent="1" vertex="1">
          <mxGeometry x="580" y="475" width="110" height="30" as="geometry" />
        </mxCell>
        <mxCell id="cP0h3hF0tNRpp3RLARsW-56" value="hora_ini_tarde" style="text;html=1;align=center;verticalAlign=middle;resizable=0;points=[];autosize=1;strokeColor=none;fillColor=none;" parent="1" vertex="1">
          <mxGeometry x="600" y="520" width="100" height="30" as="geometry" />
        </mxCell>
        <mxCell id="cP0h3hF0tNRpp3RLARsW-57" value="hora_fim_tarde" style="text;html=1;align=center;verticalAlign=middle;resizable=0;points=[];autosize=1;strokeColor=none;fillColor=none;" parent="1" vertex="1">
          <mxGeometry x="600" y="545" width="100" height="30" as="geometry" />
        </mxCell>
        <mxCell id="cP0h3hF0tNRpp3RLARsW-62" value="hora_fim_manha" style="text;html=1;align=center;verticalAlign=middle;resizable=0;points=[];autosize=1;strokeColor=none;fillColor=none;" parent="1" vertex="1">
          <mxGeometry x="590" y="495" width="110" height="30" as="geometry" />
        </mxCell>
        <mxCell id="cP0h3hF0tNRpp3RLARsW-63" value="cod_agenda" style="text;html=1;align=center;verticalAlign=middle;resizable=0;points=[];autosize=1;strokeColor=none;fillColor=none;" parent="1" vertex="1">
          <mxGeometry x="500" y="440" width="90" height="30" as="geometry" />
        </mxCell>
        <mxCell id="cP0h3hF0tNRpp3RLARsW-66" value="cod_pac" style="text;html=1;align=center;verticalAlign=middle;resizable=0;points=[];autosize=1;strokeColor=none;fillColor=none;" parent="1" vertex="1">
          <mxGeometry x="315" y="540" width="70" height="30" as="geometry" />
        </mxCell>
        <mxCell id="cP0h3hF0tNRpp3RLARsW-68" value="cod_func" style="text;html=1;align=center;verticalAlign=middle;resizable=0;points=[];autosize=1;strokeColor=none;fillColor=none;" parent="1" vertex="1">
          <mxGeometry x="190" y="420" width="70" height="30" as="geometry" />
        </mxCell>
        <mxCell id="cP0h3hF0tNRpp3RLARsW-69" value="nome_func" style="text;html=1;align=center;verticalAlign=middle;resizable=0;points=[];autosize=1;strokeColor=none;fillColor=none;" parent="1" vertex="1">
          <mxGeometry x="235" y="370" width="80" height="30" as="geometry" />
        </mxCell>
        <mxCell id="cP0h3hF0tNRpp3RLARsW-70" value="funcao_especializacao" style="text;html=1;align=center;verticalAlign=middle;resizable=0;points=[];autosize=1;strokeColor=none;fillColor=none;" parent="1" vertex="1">
          <mxGeometry x="120" y="390" width="140" height="30" as="geometry" />
        </mxCell>
        <mxCell id="cP0h3hF0tNRpp3RLARsW-71" value="cpf_func" style="text;html=1;align=center;verticalAlign=middle;resizable=0;points=[];autosize=1;strokeColor=none;fillColor=none;" parent="1" vertex="1">
          <mxGeometry x="370" y="380" width="70" height="30" as="geometry" />
        </mxCell>
        <mxCell id="cP0h3hF0tNRpp3RLARsW-72" value="fone_func" style="text;html=1;align=center;verticalAlign=middle;resizable=0;points=[];autosize=1;strokeColor=none;fillColor=none;" parent="1" vertex="1">
          <mxGeometry x="300" y="370" width="80" height="30" as="geometry" />
        </mxCell>
        <mxCell id="_dInXoB-JWE_JEybtomQ-1" value="" style="edgeStyle=elbowEdgeStyle;fontSize=12;html=1;endArrow=ERoneToMany;startArrow=ERmandOne;rounded=0;exitX=0;exitY=0.5;exitDx=0;exitDy=0;entryX=0.707;entryY=0.029;entryDx=0;entryDy=0;entryPerimeter=0;elbow=vertical;" edge="1" parent="1" source="cP0h3hF0tNRpp3RLARsW-4" target="cP0h3hF0tNRpp3RLARsW-5">
          <mxGeometry width="100" height="100" relative="1" as="geometry">
            <mxPoint x="610" y="700" as="sourcePoint" />
            <mxPoint x="710" y="600" as="targetPoint" />
            <Array as="points">
              <mxPoint x="370" y="530" />
            </Array>
          </mxGeometry>
        </mxCell>
        <mxCell id="_dInXoB-JWE_JEybtomQ-2" value="" style="edgeStyle=entityRelationEdgeStyle;fontSize=12;html=1;endArrow=ERoneToMany;startArrow=ERoneToMany;rounded=0;entryX=1;entryY=0.5;entryDx=0;entryDy=0;exitX=0;exitY=0.5;exitDx=0;exitDy=0;" edge="1" parent="1" source="cP0h3hF0tNRpp3RLARsW-5" target="cP0h3hF0tNRpp3RLARsW-3">
          <mxGeometry width="100" height="100" relative="1" as="geometry">
            <mxPoint x="340" y="620" as="sourcePoint" />
            <mxPoint x="440" y="520" as="targetPoint" />
          </mxGeometry>
        </mxCell>
      </root>
    </mxGraphModel>
  </diagram>
</mxfile>
